<?xml version="1.0" standalone="no"?>
<!DOCTYPE svg PUBLIC "-//W3C//DTD SVG 20010904//EN"
 "http://www.w3.org/TR/2001/REC-SVG-20010904/DTD/svg10.dtd">
<svg version="1.0" xmlns="http://www.w3.org/2000/svg"
 width="1024.000000pt" height="1024.000000pt" viewBox="0 0 1024.000000 1024.000000"
 preserveAspectRatio="xMidYMid meet">

<g transform="translate(0.000000,1024.000000) scale(0.100000,-0.100000)"
fill="#000000" stroke="none">
<path d="M5780 8780 l0 -100 -100 0 -100 0 0 -305 0 -305 -105 0 -105 0 0
-200 0 -200 -100 0 -100 0 0 -205 0 -205 -100 0 -100 0 0 -205 0 -205 -100 0
-100 0 0 -205 0 -205 -95 0 -95 0 0 -100 0 -99 -107 -3 -107 -3 -1 -75 c-1
-41 -2 -87 -3 -102 l-2 -28 -195 0 -195 0 0 105 0 105 -100 0 -100 0 0 100 0
100 -105 0 -105 0 0 105 0 105 205 0 205 0 0 305 0 305 -605 0 -605 0 0 -205
0 -205 100 0 100 0 0 -100 0 -100 -100 0 -100 0 0 -105 0 -105 -200 0 -200 0
0 -810 0 -810 100 0 100 0 0 -205 0 -205 -100 0 -100 0 0 -305 0 -305 100 0
100 0 0 -105 0 -105 205 0 205 0 0 105 0 105 295 0 295 0 0 95 0 95 111 0 110
0 -3 -97 -3 -98 -102 -3 -103 -3 0 -204 0 -205 -105 0 -105 0 0 -195 0 -195
-100 0 -100 0 0 -205 0 -204 -97 -3 -98 -3 -3 -202 -2 -203 -100 0 -100 0 -2
-207 -3 -208 -97 -3 -98 -3 0 -204 0 -205 205 0 205 0 0 205 0 205 100 0 100
0 0 210 0 210 100 0 100 0 0 205 0 205 95 0 95 0 2 201 3 201 100 2 100 1 0
198 0 197 97 0 98 0 0 -605 0 -605 405 0 405 0 0 200 0 200 -99 0 -99 0 -5 48
c-2 26 -4 300 -3 610 l1 562 -102 0 -103 0 0 103 0 104 -100 -5 -100 -5 0 107
0 106 205 0 205 0 0 105 0 105 196 -2 195 -3 2 -200 2 -200 103 1 102 0 0
-208 0 -208 100 0 100 0 0 -100 0 -99 103 -3 102 -3 3 -1017 2 -1018 100 0
100 0 0 -105 0 -105 1290 0 1290 0 0 105 0 105 100 0 100 0 -2 3663 -3 3662
-97 3 -98 3 0 99 0 100 -1290 0 -1290 0 0 -100z m2380 -3760 l0 -3460 -1100 0
-1100 0 0 915 0 915 105 0 104 0 -1 300 -2 300 -103 0 -103 0 0 2245 0 2245
1100 0 1100 0 0 -3460z m-2583 2278 c-2 -13 -4 -3 -4 22 0 25 2 35 4 23 2 -13
2 -33 0 -45z m1 -1260 l-3 -1223 -102 -3 -103 -3 0 104 0 103 -100 -3 -100 -3
0 105 0 105 -300 0 -299 0 -3 -102 -3 -103 -120 0 c-66 0 -202 -2 -302 -3
l-183 -2 0 -100 0 -100 -195 0 -195 0 0 -100 0 -100 -200 0 -199 0 -3 -102 -3
-103 -165 -3 c-91 -2 -180 0 -197 3 l-33 6 0 99 0 100 195 0 195 0 0 105 0
105 200 0 199 0 3 93 3 92 102 3 102 3 -3 62 c-2 34 -4 81 -4 105 l-2 42 -100
0 -100 0 0 99 0 99 -31 6 c-17 3 -61 6 -98 6 l-66 0 2 73 c0 39 2 84 2 100 l1
27 100 0 99 0 3 -102 3 -103 93 -3 92 -3 2 -57 c0 -31 2 -68 3 -82 2 -14 3
-33 4 -42 1 -17 27 -18 401 -18 l400 0 0 100 0 100 100 0 100 0 0 105 0 105
100 0 100 0 0 410 0 410 100 0 100 0 0 200 0 200 100 0 100 0 0 205 0 205 105
0 105 0 -2 -1222z m-1618 -1638 l0 -210 -95 0 -95 0 -1 153 c-1 83 -3 178 -3
210 l-2 57 98 0 98 0 0 -210z m-1202 -302 l-3 -103 -90 0 -90 0 -3 103 -3 102
96 0 96 0 -3 -102z m202 -198 l0 -100 -95 0 -95 0 0 100 0 100 95 0 95 0 0
-100z"/>
<path d="M6370 7565 l0 -305 295 0 295 0 0 305 0 305 -295 0 -295 0 0 -305z"/>
<path d="M7360 7565 l0 -305 205 0 206 0 -2 305 -2 305 -203 0 -204 0 0 -305z"/>
<path d="M6370 6350 l0 -310 295 0 295 0 0 310 0 310 -295 0 -295 0 0 -310z"/>
<path d="M7360 6350 l0 -310 205 0 205 0 0 310 0 310 -205 0 -205 0 0 -310z"/>
<path d="M6370 5125 l0 -305 295 0 295 0 0 305 0 305 -295 0 -295 0 0 -305z"/>
<path d="M7360 5125 l0 -305 203 2 202 3 3 303 2 302 -205 0 -205 0 0 -305z"/>
<path d="M6370 3895 l0 -305 295 0 295 0 0 305 0 305 -295 0 -295 0 0 -305z"/>
<path d="M7360 3895 l0 -305 205 0 206 0 -3 305 -2 305 -203 0 -203 0 0 -305z"/>
<path d="M6370 2680 l0 -310 295 0 295 0 0 310 0 310 -295 0 -295 0 0 -310z"/>
<path d="M7360 2680 l0 -310 204 0 204 0 1 310 2 310 -206 0 -205 0 0 -310z"/>
<path d="M2960 8175 l0 -105 -100 0 -100 0 0 -100 0 -100 -100 0 -100 0 0
-205 0 -205 800 0 800 0 0 205 0 205 -95 0 -95 0 0 100 0 100 -94 0 c-109 0
-104 -7 -101 129 l1 81 -408 0 -408 0 0 -105z"/>
</g>
</svg>
